<?xml version="1.0" encoding="UTF-8"?>
<svg id="Layer_1" data-name="Layer 1" xmlns="http://www.w3.org/2000/svg" xmlns:xlink="http://www.w3.org/1999/xlink" viewBox="0 0 86.02 28.67">
  <defs>
    <style>
      .cls-1 {
        fill: none;
      }

      .cls-1, .cls-2 {
        stroke-width: 0px;
      }

      .cls-3 {
        clip-path: url(#clippath);
      }

      .cls-2 {
        fill: #fff;
      }
    </style>
    <clipPath id="clippath">
      <rect class="cls-1" width="86.02" height="28.67"/>
    </clipPath>
  </defs>
  <g class="cls-3">
    <g>
      <path class="cls-2" d="M20.76,25.65c.14.07.29.13.44.18.14.03.27.08.4.13l-.1.07s-.24.02-.46.02c-.15,0-.31-.02-.46-.05l-.35-.08.07-.2.1-.2-.21-.04H1.04V0H0v26.47h27.72v-.99h-7.14l.18.18Z"/>
      <path class="cls-2" d="M20.56,23.43c-.04.11,0,.44-.08.46-.08.02.13.33.13.33l-.05.18h7.2v-.99h-7.17s0,.01-.02.02"/>
      <path class="cls-2" d="M2.34,5.18c.06-.08.13-.15.22-.2.05-.02.12-.15.2-.2.03-.01.06-.04.08-.06.02-.03.04-.06.05-.09-.06-.01-.13-.01-.19,0-.05.02-.1.03-.15.03-.03-.03-.05-.08-.06-.12,0-.04-.16-.02-.16-.02l-.07-.07c.02-.07.06-.12.12-.16.1-.05,0-.15-.06-.13-.06.02-.21.09-.16.05.05-.04,0-.02,0-.02v1.14l.07-.03s.08-.07.11-.11"/>
      <path class="cls-2" d="M2.39,3.35c.06-.01.12-.02.18-.02l.15-.05s.04-.05.21,0v-.13c.06-.08.12-.15.19-.21.05-.04-.1-.12-.1-.12l-.24.08-.24.02-.14-.06s0-.08,0-.13c0-.05.15-.13.15-.13,0-.04,0-.08,0-.12,0-.04.08-.13.08-.13l.12.03.06-.1c.05-.1.12-.05.12-.05l.12.11.05.08h.1v-.67s-.1-.02-.1-.02c0,0-.04-.12.03-.14.03-.01.05-.03.07-.06V.04h-1.03v3.59s.02-.04.04-.05c.09-.07.14-.2.19-.23Z"/>
      <path class="cls-2" d="M3.2,24.41h15.93c-.03-.06-.09-.27-.09-.27,0,0,.09-.23,0-.32-.09-.09.03-.35.03-.35v-.04H3.2V4.79l-.07.05c-.1.04-.21.07-.32.1-.13.05-.21.2-.33.29-.07.08-.16.13-.26.15-.02,0-.04.01-.06.02v19h1.04Z"/>
      <path class="cls-2" d="M5.35,22.35h13.4c-.04-.08-.07-.17-.09-.26,0-.14.02-.27.09-.39.03-.11.05-.23.03-.35H5.35V4.55s-.01-.02-.02-.03c0,0-.38-.17-.44-.21-.07-.04-.24-.11-.32-.15-.08-.04-.12-.05-.22.03-.02,0-.04.02-.05.03v18.13h1.05Z"/>
      <path class="cls-2" d="M4.42.91c-.07,0,.06-.07.15-.12.09-.05.12.06.12.06,0,0,.12-.06.18-.08.05-.02.07.07.07.07.03,0,.06.02.08.03.04.02.08.05.1.08,0,.02,0,.05,0,.07,0,.03.02.05.04.07.02.02.08.06.12.09.02.01.04.03.06.03V.02h-1.04v.96c.05-.02.19-.08.12-.07Z"/>
      <path class="cls-2" d="M27.67,21.35h-6.16s.02.03.03.04c.06.07.17.11.2.22.02.05.03.1.02.15,0,.05-.04.1-.07.13-.18.11-.38.19-.58.22-.09.01-.13.15-.16.25h6.73v-1.01Z"/>
      <path class="cls-2" d="M6.71,1.81s.11.04.13.03c0,0,.01,0,.02.02h-.01s.02.06.05.08c.03.02.07.02.1.04,0-.01,0-.03,0-.04,0-.01.01-.02.03-.03.01-.02.03-.04.03-.06.02-.03.03-.07.04-.1,0-.02.01-.04.02-.06,0-.02,0-.02.03-.02.08,0,.12.08.19.04.02-.01.05-.03.08-.03.03,0,.06-.01.09-.02V.02h-1.05v1.63s.08.06.12.08c.04.02.09.04.13.07"/>
      <path class="cls-2" d="M27.71,19.3h-4.27c-.06.04-.11.07-.16.11-.05.11-.07.23-.06.35,0,.09.01.29.01.29-.01.08-.03.17-.05.25h4.53v-1Z"/>
      <path class="cls-2" d="M7.31,2.02s.06,0,.08,0c.03,0,.05-.02.07-.04.01,0,.03,0,.04-.01v-.13s-.04.04-.07.06c-.03,0-.06,0-.09.02-.03.02-.11.09-.04.11Z"/>
      <path class="cls-2" d="M7.5,20.29h11.12c-.02-.06-.03-.12-.02-.18,0-.16,0-.31.05-.46.02-.12.02-.24,0-.36H7.5v-9.45c-.03-.05-.06-.1-.1-.13l-.12-.07c-.07-.04-.14-.09-.2-.15-.03-.04-.16-.17-.19-.2-.02-.07-.03-.15-.02-.22,0,0-.11-.12-.15-.17-.03-.04-.13-.17-.12-.23,0-.06,0-.18,0-.18,0-.09,0-.18-.02-.27,0-.08.01-.15.03-.23.02-.08.08-.51.16-.57.05-.05.08-.11.1-.18l.09-.12c0-.09-.03-.17-.06-.25-.08-.11-.17-.22-.27-.32-.06-.04-.11-.27-.16-.38v14.14h1.05Z"/>
      <path class="cls-2" d="M8.64,11.04l.4.69v.23l-.43-.36v6.65h9.93c-.02-.17-.28-.23-.42-.3-.2-.06-.39-.14-.57-.25-.15-.13-.28-.28-.4-.44,0,0,0-.01-.01-.02h-7.49v-5.55l-.24-.11-.13-.07.02-.11v-.13c-.06-.05-.12-.1-.18-.16-.07-.07-.14-.14-.22-.21-.07-.04-.13-.1-.18-.15-.03-.04-.04-.12-.07-.16-.03-.04,0-.02-.02-.03v.42l.04.03-.03.02Z"/>
      <path class="cls-2" d="M8.81,1.96s0,.03.01.05c.01.02.11.06.16.07.02,0,.04,0,.06,0h.05s.02.02.03.02c.02.01.03.03.05.03.02.02.05.02.07.04.02.01-.01,0-.01-.01.01,0,.02.02.03.03,0,0-.01,0-.02-.01.03.04.07.08.13.06.07-.02.03-.01.05-.03.02-.02.02,0,.03.02.01.02.07.04.04.07-.02.02-.05.03-.06.04,0,.01-.03.04-.07.06-.03.02-.07.03-.11.04,0,.03,0,.06.04.08.04.02.03.01.04.02.01,0,0,.02.02.02,0,0,.01.01.02.02,0,0,.02,0,.03,0,.04,0,.04.02.06.03.03.02.11,0,.16,0,0,0,.02,0,.02,0V.02h-1.05v1.86h.05c.06,0,.1.02.14.07Z"/>
      <path class="cls-2" d="M27.74,17.24h-2.66v.02c0,.22-.03.43-.08.64-.03.09-.08.21-.14.35h2.87v-1Z"/>
      <path class="cls-2" d="M27.67,16.19v-.99h-4.1l.39.14.53.06s.3.07.4.09c.1.02.23.2.29.29.06.09.32.06.4.11.08.07.15.15.21.25,0,0,0,.02-.03.06h1.91Z"/>
      <path class="cls-2" d="M11.81,16.19h4.5c-.06-.06-.12-.11-.17-.18-.06-.09-.12-.26-.18-.33-.06-.07,0-.31,0-.31v-.19h-4.14v-2.54h-.15l-.47-.07s-.13-.36-.24-.43c-.06-.03-.12-.06-.18-.09v4.13h1.04Z"/>
      <path class="cls-2" d="M11.62,5.14s.09,0,.14.01c.02,0,.04.02.06.03v-1.3l-.02.02c-.1.07-.18.16-.24.27h0s-.05.04-.06.05c-.04.06-.11.11-.14.18-.03.07,0,.11-.05.17-.01.02-.02.04-.03.07,0,.02,0,.05,0,.07,0,.02.01.03.02.04.01.01.03.01.05.01.03,0,.05-.01.07-.03.01,0,.03-.03.05-.04,0,0,.02,0,0,0,0,0,.02.05.04.08.02.02.04.03.06.06s0,.09.02.07c.02-.01-.01.02-.02.02.05.03.03.08,0,.12-.03.04,0,.07.07.08"/>
      <path class="cls-2" d="M10.82,2.55s.03,0,.04,0,.03,0,.04,0c.07.02.15.05.22.08l.08.02c.05,0,.1.04.16.02.06-.02.09-.08.13-.11.04-.03.08-.09.13-.09,0,.01,0,.03-.02.04-.02.01-.02.07-.06.1,0,0,0,.01,0,.02s0,.02,0,.02c.05-.03.08.05.07.08,0,.02-.1.09-.06.13-.03.03.01.06.04.05.05-.02.09-.05.12-.1.03-.04.06-.09.08-.13,0-.01.01-.02.02-.03V.02h-1.05v2.54h.02s.02,0,.04,0"/>
      <path class="cls-2" d="M11.09,11.55l.12.22.28-.27s.11-.23.16-.32c.04-.07.09-.13.17-.16v-1.32l-.1.03s-.08.04-.11.07c-.02.03,0,.03-.07.06-.02.02-.05.04-.08.04h-.14s-.22-.05-.22-.05l-.09.05s.01-.02-.24.12v1.47s.11.08.17.1c.03,0,.05,0,.08,0,.03,0,.05-.02.07-.04"/>
      <path class="cls-2" d="M19.75,13.31l.29.04.3.18.31.2.35.02h.19l.45.14c.15.07.3.15.44.25h5.61v-.99h-8.01s.08.03.11.04c.24.11-.04.13-.04.13"/>
      <path class="cls-2" d="M13.97,14.13h2.19c.04-.2-.49-.28-.53-.33,0,0-.18-.03-.23-.09-.05-.06-.3-.25-.3-.25-.19,0-.38.02-.57.06l-.1.15-.34-.05c-.07-.02-.14-.06-.2-.1h-.28l-.14-.08-.28-.04-.2-.05-.04-.2-.04-.03v1.01h1.05Z"/>
      <path class="cls-2" d="M17.93,13.23c.06-.01.1-.04.14-.08,0,0,.02,0,.04-.02h-.34l.02.04s.04.03.06.04c.02.01.05.02.08.01Z"/>
      <path class="cls-2" d="M15.32,13.2l.15.04.18.12h.16s.28-.14.5-.25h-1.13l.14.08Z"/>
      <path class="cls-2" d="M13.22,12.13c.07.02.14.02.21.03.08,0,.03.1.03.1l.02.25c0,.06,0,.12.01.18,0,.1-.02.2-.05.3.05.03.09.06.12.1.05.07.11.1.26.15.08.02.15.06.21.11h.32c.08-.04.15-.09.2-.15l.27-.04h-.84v-5.29s-.03.02-.04.03c-.05.03-.1.06-.15.09-.03,0-.05.07-.06.09,0,.02-.08.04-.11.06-.04,0-.08.02-.11.04-.02.01-.03.03-.04.05,0,.02-.01.04-.01.07,0,.04-.02.08-.04.11,0,.02.04.09.05.13,0,.02.01.05.03.07-.03.07-.06.14-.1.2l-.1.08c-.06.07-.13.13-.19.19-.06.05-.12.1-.17.16v2.87l.07-.03.23.07Z"/>
      <path class="cls-2" d="M12.96,6.25s0,.03.05.02c.04,0,.09-.02.13-.03.06-.04.09-.1.15-.14.05-.04.18-.12.11-.2-.02-.03-.06-.05-.06-.09s0-.06-.02-.08c-.02-.02-.09-.06-.12-.11-.02-.05,0-.02.03-.06.03-.04.06-.07.1-.09.02,0,.05-.02.06-.03,0,0,0-.02,0,0,.02-.03.04-.05.06-.07.02-.02.04-.02.06-.04.02-.03.04-.06.06-.09.05-.06.12-.16.07-.25-.02-.04-.05-.07-.08-.11-.01-.02-.03-.02-.04-.05,0-.02.03-.05.02-.07,0-.02-.07-.02-.07-.04s.07-.07.08-.08c0-.02,0-.03,0-.05,0-.02.01-.03.03-.04.01,0,.03-.02.04-.03.01-.02,0-.04.02-.07.02-.02.02-.03.03-.06,0-.01,0-.02-.01-.03,0,0-.02-.02-.03-.02-.04-.04-.08-.07-.04-.13.03-.05.06-.1.1-.14.02-.02.04-.04.05-.07,0-.02,0-.04,0-.05.02-.03.08-.02.11-.01.02,0,.04.02.06.03,0,0,0,.03.03.03h.01V.01h-1.05v2.65l.03-.02s.06-.09.07-.15c.01-.04.03-.1.05-.14.01-.03.03-.05.06-.07.02-.02.04-.03.06-.03.03-.03,0-.03-.03-.06-.03-.03,0-.02,0-.04s.02-.06.07-.05c.04,0,.03.03.06.05.02.02.03,0,.06.01.03.01.03.02.05.04.02.01.1.03.1.07,0,.04-.04.07-.06.09-.02.02-.02.08-.06.11-.04.03-.06.03-.06.06.01.01.03.03.05.04.01,0,.07.03.07.04,0,0-.02.06-.03.07-.02.03-.04.06-.08.08-.04.04-.03.09-.09.12-.04.01-.09,0-.13-.01t-.03-.02c-.06-.02-.08.04-.12.05-.02,0-.03,0-.05,0v3.29s0,0,.01,0c0,0,0,0,0,.01.01,0,0,.04.01.05"/>
      <path class="cls-2" d="M16.12,12.08h11.61v-.99h-11.61v-5.27s-.06.06-.09.09c-.1.08-.22.14-.34.18-.13.02-.25.03-.38.03,0,0-.13.03-.24.06v.63c.06.02.11.06.15.11.02.03.05.08.1.1.04.02.18-.08.18-.08l.09-.05.02.06s0,.03-.05.05c-.05.02-.03.04-.1.09-.04.04-.1.08-.15.1-.06,0-.12.02-.18.03h-.04v4.87h1.04Z"/>
      <path class="cls-2" d="M15.29,4.35l.11-.02s0,.09,0,.13c0,.07,0,.14.01.2,0,.01.02.02.03.03.01,0,.03,0,.04,0,.04,0,.09.07.15.09.06.02.09.07.08.11s-.04.07-.06.16c-.01.09.12.09.17.11.04.02.24.04.24.05s.04.06.03.09V.01h-1.03v4.67s.1-.2.11-.22c.03-.04.06-.07.1-.11"/>
      <path class="cls-2" d="M15.75,5.84s.03-.06.02-.07c0-.01,0-.05.03-.08.03-.03.07-.02.14-.03.03,0,.1-.04.17-.07v-.3s0,0,0,0c0,0,0,0,0,0,0,0,0,0,0,0,0,0,0,0,0,0-.05,0-.05.1-.11.14-.07.04-.19.06-.24.11-.05.05.02.09.03.11,0,.02-.02.03-.06.08-.05.05.03.07.03.07"/>
      <path class="cls-2" d="M18.28,9.02V.02h-1.05v10h10.53v-1h-9.49Z"/>
      <path class="cls-2" d="M20.43,7.96h7.27v-1h-7.27V.01h-1.05v7.95h1.05Z"/>
      <path class="cls-2" d="M22.59,5.91h5.14v-1h-5.14V0h-1.05v5.9h1.05Z"/>
      <path class="cls-2" d="M24.74,3.85h3.02v-1h-3.02V0h-1.05v3.85h1.05Z"/>
      <path class="cls-2" d="M26.89,1.8h.8V.79h-.8V.03h-1.05v1.77h1.05Z"/>
      <path class="cls-2" d="M11.81,3.78v.11s.04-.03.04-.05c0-.02-.03-.03-.04-.05Z"/>
      <path class="cls-2" d="M30.76,13.1h2.42v11.13h6.03v2.26h-8.45v-13.39Z"/>
      <path class="cls-2" d="M44.16,21.19l1.63-4.96,1.66,4.96h-3.29ZM51.91,26.49l-4.81-13.39h-2.56l-4.68,13.39h2.58l.97-3.04h4.8l1.04,3.04h2.65Z"/>
      <path class="cls-2" d="M52.75,13.1h8.23v2.26h-5.82v3.17h5.03v2.26h-5.03v5.69h-2.41v-13.39Z"/>
      <path class="cls-2" d="M64.78,13.1h-2.42v13.39h2.42v-13.39Z"/>
      <path class="cls-2" d="M68.11,21.88c.11.69.43,2.56,2.62,2.56,1.69,0,2.36-.99,2.36-1.85,0-1.13-.84-1.37-3.05-1.97-1.2-.34-3.84-1.07-3.84-4.01,0-1.47.87-3.75,4.39-3.75,2.34,0,4.49,1.02,4.6,4.04l-2.44.12c-.1-.69-.28-1.95-2.19-1.95-.73,0-2.03.25-2.03,1.32,0,.86.75,1.24,2.68,1.74,1.83.5,4.31,1.15,4.31,4.45,0,1.63-.92,2.98-1.96,3.51-1.07.57-2.28.6-2.82.6-1.3,0-4.49-.13-4.95-4.59l2.35-.24Z"/>
      <path class="cls-2" d="M76.54,13.1h8.91v2.26h-6.48v2.97h6.03v2.26h-6.03v3.63h6.69v2.26h-9.12v-13.39Z"/>
      <path class="cls-2" d="M86.01,27.87H0v.8h86.01v-.8Z"/>
      <path class="cls-2" d="M30.96,4.25h2.73c.41,0,.82.02,1.22.08.26.05.5.16.71.32.37.3.62.72.71,1.19.09.47.01.96-.22,1.37-.16.29-.41.53-.7.68.39.12.73.37.96.71.23.35.34.76.33,1.18,0,.36-.07.71-.21,1.03-.13.31-.33.59-.59.8-.27.21-.59.34-.93.37-.23.03-.78.04-1.66.05h-2.33v-7.79ZM32.34,5.54v1.8h.9c.54,0,.87,0,1-.02.11,0,.21-.04.31-.09.1-.05.18-.12.25-.2.07-.08.12-.18.16-.28.03-.1.05-.21.04-.32,0-.21-.05-.42-.17-.59-.13-.16-.32-.26-.52-.27-.13-.02-.53-.03-1.18-.03h-.79ZM32.34,8.64v2.08h1.28c.32.01.63,0,.94-.05.2-.04.38-.15.5-.31.14-.19.2-.43.19-.66,0-.21-.04-.42-.15-.6-.1-.16-.25-.29-.43-.36-.4-.1-.81-.13-1.22-.11h-1.12Z"/>
      <path class="cls-2" d="M44,12.03h-1.5l-.59-1.77h-2.73l-.56,1.77h-1.46l2.66-7.79h1.46l2.73,7.79ZM41.47,8.95l-.94-2.89-.92,2.89h1.86Z"/>
      <path class="cls-2" d="M44.75,12.03v-7.79h1.34l2.79,5.2v-5.2h1.28v7.79h-1.38l-2.75-5.08v5.08h-1.28Z"/>
      <path class="cls-2" d="M56,9.17l1.34.5c-.21.85-.55,1.48-1.02,1.89-.51.43-1.16.65-1.82.62-.43,0-.85-.08-1.24-.27-.39-.18-.73-.46-1-.79-.58-.71-.88-1.67-.88-2.9,0-1.3.29-2.3.88-3.02.28-.35.63-.63,1.03-.81.4-.19.84-.28,1.28-.26.38-.01.76.05,1.11.2.35.15.67.36.93.64.35.41.59.9.7,1.44l-1.36.37c-.06-.37-.24-.7-.51-.96-.26-.23-.59-.36-.93-.35-.24,0-.48.05-.69.16-.21.11-.4.27-.54.47-.32.41-.47,1.08-.47,2.01,0,.99.16,1.68.47,2.1.14.2.32.36.53.47.21.11.45.16.69.16.18,0,.35-.03.51-.1.16-.07.31-.17.43-.3.31-.35.5-.79.57-1.25"/>
      <path class="cls-2" d="M58.24,8.19c-.02-.68.09-1.36.31-2,.15-.39.37-.75.64-1.07.24-.29.54-.53.88-.7.46-.21.96-.32,1.46-.31.46-.02.91.07,1.33.25.42.18.79.46,1.09.81.6.71.91,1.7.9,2.98,0,1.27-.3,2.25-.9,2.95-.3.35-.67.63-1.08.81-.42.18-.87.27-1.32.25-.46.02-.92-.06-1.34-.25-.42-.18-.8-.46-1.1-.81-.6-.71-.9-1.68-.9-2.92h.02ZM59.64,8.14c0,.88.18,1.55.53,2.01.16.22.37.39.61.51.24.12.5.18.77.17.26,0,.52-.06.76-.17.24-.12.44-.29.6-.51.35-.45.53-1.13.53-2.03s-.17-1.56-.52-2c-.17-.21-.38-.37-.61-.49-.24-.11-.5-.17-.76-.17s-.52.06-.76.17c-.24.11-.45.28-.61.49-.35.44-.52,1.12-.52,2.01"/>
    </g>
  </g>
</svg>