<?xml version="1.0" encoding="UTF-8"?>
<svg id="Layer_1" data-name="Layer 1" xmlns="http://www.w3.org/2000/svg" viewBox="0 0 315.56 300.79">
  <defs>
    <style>
      .cls-1 {
        opacity: .02;
      }

      .cls-2 {
        fill: #fff;
        stroke-width: 0px;
      }
    </style>
  </defs>
  <g class="cls-1">
    <path class="cls-2" d="M235.92,291.54c1.59.85,3.26,1.53,4.99,2.03,1.56.37,3.09.86,4.57,1.47l-1.08.76s-2.77.28-5.21.28c-1.74-.04-3.47-.23-5.18-.56l-3.96-.93.8-2.25,1.08-2.23-2.38-.51H11.86V0H0v300.79h315.06v-11.27h-81.19l2.05,2.03Z"/>
    <path class="cls-2" d="M26.59,58.91c.66-.92,1.5-1.69,2.47-2.25.55-.23,1.33-1.75,2.27-2.31.35-.16.66-.4.91-.69.25-.29.44-.63.56-1-.71-.14-1.45-.14-2.16,0-.54.18-1.1.3-1.66.37-.33-.4-.57-.86-.72-1.35,0-.51-1.83-.23-1.83-.23l-.78-.82c.22-.77.73-1.41,1.41-1.8,1.19-.62,0-1.66-.72-1.44s-2.38,1.01-1.83.56c.55-.45,0-.2,0-.28v12.94l.8-.34c.49-.35.92-.78,1.27-1.27"/>
    <path class="cls-2" d="M27.14,38.02c.68-.16,1.38-.24,2.08-.25l1.66-.56s.47-.62,2.38,0v-1.44c.66-.86,1.39-1.66,2.19-2.4.55-.48-1.11-1.32-1.11-1.32l-2.77.9-2.77.2-1.55-.7c-.05-.48-.05-.96,0-1.44,0-.54,1.72-1.44,1.72-1.44.04-.47.04-.94,0-1.41,0-.51.86-1.52.86-1.52l1.36.34.64-1.13c.58-1.18,1.38-.54,1.38-.54l1.33,1.24.58.93h1.14v-7.61c-.5,0-1.14-.25-1.14-.25,0,0-.42-1.32.39-1.61.32-.13.58-.37.75-.68V.42h-11.74v40.81c.12-.23.27-.43.44-.62,1.02-.82,1.55-2.31,2.19-2.59Z"/>
    <path class="cls-2" d="M36.37,277.39h181.05c-.31-.73-1.05-3.04-1.05-3.04,0,0,1.05-2.65,0-3.69-1.05-1.04.39-4.03.39-4.03v-.51H36.37V54.4l-.75.59c-1.19.43-2.4.79-3.63,1.1-1.44.56-2.44,2.28-3.71,3.33-.78.9-1.83,1.49-2.99,1.69-.25.07-.49.15-.72.25v215.95l11.8.08Z"/>
    <path class="cls-2" d="M60.8,254.05h152.35c-.47-.94-.82-1.93-1.05-2.96-.07-1.56.27-3.11,1-4.48.39-1.27.52-2.62.39-3.95H60.8V51.72c-.06-.13-.13-.25-.22-.37,0,0-4.27-1.92-5.01-2.34-.75-.42-2.77-1.24-3.63-1.66-.86-.42-1.39-.54-2.47.34-.21.08-.41.19-.58.34v206.03h11.91Z"/>
    <path class="cls-2" d="M50.28,10.37c-.8,0,.72-.82,1.72-1.35,1-.54,1.41.7,1.41.7,0,0,1.41-.7,2.02-.93.61-.23.8.76.8.76.32.1.63.21.94.34.46.18.86.52,1.11.96.07.25.07.51,0,.76,0,.39.22.54.47.76.25.23.89.73,1.33,1.01.19.16.4.29.64.37V.28h-11.83v10.91c.58-.28,2.11-.93,1.39-.82Z"/>
    <path class="cls-2" d="M76.31,20.54s1.22.48,1.47.39c.08.04.15.11.19.2h-.17s.25.7.58.9c.33.2.83.25,1.16.42-.03-.14,0-.29.06-.41.07-.13.17-.23.3-.29.16-.23.29-.47.39-.73.19-.38.36-.78.5-1.18.05-.25.14-.5.25-.73,0-.25,0-.2.39-.2.89,0,1.41.93,2.16.42.28-.17.59-.29.91-.37.34-.04.66-.14.97-.28V.28h-11.94v18.55c.41.38.88.69,1.38.93.51.23,1,.49,1.47.79"/>
    <path class="cls-2" d="M83.04,22.97c.31.05.63.04.94-.04.31-.08.59-.23.84-.44.16-.03.32-.09.47-.17v-1.49c-.23.27-.49.5-.78.7-.39,0-.72,0-1.05.2-.33.2-1.22,1.04-.42,1.24Z"/>
    <path class="cls-2" d="M85.29,230.63h126.42c-.21-.65-.31-1.34-.28-2.03-.11-1.77.09-3.54.58-5.24.21-1.34.21-2.71,0-4.06h-126.73v-107.38c-.31-.57-.71-1.09-1.19-1.52l-1.38-.85c-.84-.47-1.62-1.04-2.33-1.69-.33-.45-1.86-1.89-2.19-2.28-.23-.82-.32-1.68-.28-2.54,0,0-1.3-1.38-1.66-1.89s-1.47-1.92-1.39-2.62c.08-.7,0-2.03,0-2.03.01-1.03-.05-2.05-.19-3.07,0-.88.14-1.75.39-2.59.28-.9.89-5.81,1.83-6.51.55-.55.94-1.24,1.14-2l1-1.38c-.05-.98-.3-1.94-.72-2.82-.94-1.29-1.97-2.51-3.1-3.64-.69-.42-1.3-3.1-1.86-4.37v160.65l11.94-.14Z"/>
    <path class="cls-2" d="M98.23,125.43l4.57,7.84v2.62l-4.85-4.14v75.62h112.88c-.25-1.89-3.16-2.65-4.74-3.38-2.26-.69-4.43-1.64-6.48-2.82-1.68-1.52-3.21-3.21-4.54-5.04-.02-.09-.07-.17-.14-.23h-85.09v-63.02l-2.77-1.27-1.47-.82.19-1.24v-1.44c-.71-.55-1.38-1.17-1.99-1.83-.77-.84-1.59-1.62-2.47-2.34-.74-.51-1.44-1.08-2.08-1.72-.3-.51-.5-1.32-.8-1.78s0-.23-.28-.37v4.74l.42.39-.36.23Z"/>
    <path class="cls-2" d="M100.08,22.26c.17.17,0,.34.17.54.17.2,1.27.73,1.83.79.24.06.48.06.72,0h.61c.17,0,.25.2.39.23.18.16.37.29.58.39.25.2.53.28.75.45.22.17-.17,0-.17-.17.15.07.28.19.36.34,0,0-.17,0-.19-.17.36.48.75.9,1.5.65.75-.25.33-.17.58-.37.25-.2.22,0,.39.23.17.23.75.48.47.76-.28.28-.53.31-.64.48-.11.17-.36.48-.78.65-.4.2-.81.34-1.25.42,0,.37,0,.68.42.87.42.2.3.14.44.25.14.11,0,.25.19.28.07.09.17.16.27.21.11.04.22.06.34.05.42,0,.42.2.72.39.3.2,1.3,0,1.77,0,.09-.03.19-.03.28,0V.28h-11.88v21.19h.58c.64,0,1.19.23,1.55.79Z"/>
    <path class="cls-2" d="M134.26,184.02h51.13c-.67-.64-1.31-1.3-1.91-2-.72-1.07-1.38-2.99-2.08-3.8-.69-.82,0-3.47,0-3.47v-2.11h-47.09v-28.86h-1.69l-5.37-.79s-1.52-4.14-2.77-4.9c-.67-.38-1.37-.72-2.08-1.01v46.96h11.86Z"/>
    <path class="cls-2" d="M132.04,58.45c.53-.03,1.06.03,1.58.17.22.08.44.18.64.31v-14.77l-.19.23c-1.1.82-2.04,1.84-2.77,3.02v-.17c0-.17-.58.59-.69.79-.42.65-1.25,1.21-1.63,2-.39.79,0,1.27-.61,1.89-.17.23-.28.49-.34.77-.06.28-.06.56,0,.84.03.19.13.35.28.47.15.11.33.17.52.15.29-.03.57-.14.8-.31.17,0,.3-.39.55-.42,0,0,.25-.03,0,0,0,0,.28.62.5.87.22.25.5.34.64.68.14.34,0,.99.25.85.25-.14-.17.2-.19.25.53.39.3.9,0,1.41-.3.51,0,.85.78.87"/>
    <path class="cls-2" d="M123.02,28.97c.15-.07.31-.11.47-.11s.32.04.47.11c.85.26,1.68.58,2.49.96l.94.28c.58,0,1.11.48,1.77.2.66-.28,1-.93,1.47-1.3.47-.37.91-1.07,1.47-1.07,0,.17,0,.34-.19.48-.19.14-.22.82-.72,1.13-.06.07-.1.16-.1.25s.04.19.1.25c.58-.39.86.59.78.87-.08.28-1.14,1.01-.69,1.44-.39.31.17.68.5.56.57-.17,1.06-.57,1.36-1.1.36-.48.68-.98.94-1.52,0-.17.14-.2.19-.37V.22h-11.88v28.86h.22c.14-.01.28-.01.42,0"/>
    <path class="cls-2" d="M126.01,131.26l1.33,2.54,3.16-3.02s1.27-2.65,1.86-3.64c.4-.81,1.08-1.45,1.91-1.78v-15.02l-1.11.31c-.47.2-.91.47-1.3.79-.28.39,0,.39-.8.7-.26.24-.57.4-.91.48l-1.58-.17-2.49-.42-1,.62s.17-.2-2.77,1.35v16.69c.56.52,1.21.92,1.91,1.18.31.04.62,0,.92-.09.3-.1.57-.26.8-.47"/>
    <path class="cls-2" d="M158.77,160.63h24.93c.5-2.28-5.54-3.13-6.01-3.78,0,0-2.05-.31-2.6-1.04-.55-.73-3.46-2.82-3.46-2.82-2.19-.04-4.37.19-6.51.68l-1.11,1.66-3.85-.59c-.82-.24-1.59-.63-2.27-1.16h-3.13l-1.55-.93-3.21-.45-2.22-.62-.47-2.28-.44-.34v11.5l11.91.17Z"/>
    <path class="cls-2" d="M203.73,150.39c.62-.11,1.19-.44,1.61-.93,0,0,.25,0,.44-.23h-3.85l.19.48c.21.22.46.39.73.51.28.12.57.17.87.17Z"/>
    <path class="cls-2" d="M174.15,150.03l1.74.48,2.05,1.38h1.77s3.21-1.61,5.68-2.82h-12.83l1.58.96Z"/>
    <path class="cls-2" d="M150.24,137.82c.77.17,1.56.28,2.35.31.89,0,.31,1.18.31,1.18l.19,2.82c0,.69.06,1.38.17,2.06-.04,1.14-.23,2.27-.58,3.35.52.3.98.69,1.36,1.16.61.85,1.3,1.1,2.96,1.69.85.26,1.65.68,2.35,1.24h3.63c.87-.41,1.66-.98,2.33-1.69l3.02-.48h-9.56v-60.15c-.14.13-.3.24-.47.31-.6.29-1.17.65-1.69,1.07-.36,0-.58.76-.69.99-.11.23-.94.48-1.3.65-.45.05-.88.19-1.27.42-.2.16-.37.36-.48.6-.11.24-.15.5-.13.76-.03.47-.18.91-.44,1.3,0,.28.44,1.01.61,1.47.05.28.15.55.31.79-.32.79-.69,1.55-1.11,2.28l-1.14.93c-.7.76-1.43,1.47-2.22,2.14-.69.53-1.32,1.14-1.88,1.8v32.58l.8-.39,2.58.82Z"/>
    <path class="cls-2" d="M147.25,71.08q0,.34.53.25c.5-.09.99-.22,1.47-.39.69-.48,1.08-1.16,1.66-1.63.58-.48,2.02-1.38,1.3-2.31-.25-.34-.64-.56-.69-1.04-.05-.48,0-.7-.19-.93-.19-.23-1.08-.7-1.33-1.3-.25-.59,0-.28.33-.65.32-.41.73-.75,1.19-.99.25,0,.58-.2.69-.39,0,0,.11-.2,0,0,.19-.3.43-.56.72-.76.22-.2.5-.25.69-.48.19-.36.4-.71.64-1.04.58-.65,1.33-1.83.78-2.82-.26-.43-.56-.83-.89-1.21-.17-.2-.36-.28-.42-.54-.06-.25.31-.54.25-.82-.06-.28-.78-.23-.78-.48s.75-.79.94-.96c-.03-.19-.01-.38.05-.56.06-.18.17-.34.31-.46.16-.1.3-.22.42-.37.17-.23,0-.51.22-.79.22-.28.2-.37.31-.65,0-.13-.05-.25-.13-.35-.07-.1-.17-.19-.29-.24-.42-.45-.89-.85-.47-1.47.31-.59.69-1.14,1.14-1.63.25-.22.45-.5.55-.82.05-.19.05-.4,0-.59.22-.37.86-.25,1.25-.17.23.09.45.19.66.31,0,0,0,.31.31.39h.17V.11h-11.91v30.13l.39-.25c.42-.47.71-1.04.83-1.66.17-.51.31-1.1.53-1.63.15-.31.37-.58.64-.79.2-.17.44-.3.69-.37.3-.39,0-.39-.36-.7-.36-.31,0-.28,0-.51s.28-.65.75-.54c.47.11.36.37.64.59.28.23.31,0,.67.17.36.17.33.28.53.42.2.14,1.14.31,1.19.76.06.45-.47.79-.66,1.04-.19.25-.28.9-.72,1.21-.44.31-.69.39-.69.7.15.17.33.31.53.42.17,0,.75.34.8.45.05.11-.2.65-.33.79-.2.38-.49.69-.86.9-.5.45-.36,1.07-1,1.38-.49.13-1.02.07-1.47-.17q-.19,0-.33-.25c-.66-.28-.86.42-1.36.56-.17.04-.35.04-.53,0v37.4c.05.02.1.06.14.1.04.04.07.1.08.15.17,0,0,.42.17.56"/>
    <path class="cls-2" d="M183.18,137.26h131.99v-11.27h-131.99v-59.95c-.35.31-.68.64-1,.99-1.16.9-2.48,1.58-3.88,2-1.43.24-2.87.36-4.32.37,0,0-1.49.31-2.77.65v7.13c.68.23,1.27.66,1.69,1.24.28.34.58.9,1.08,1.1.5.2,2.05-.87,2.05-.87l.97-.59.25.7s0,.31-.55.54c-.55.23-.39.48-1.16,1.07-.51.49-1.1.88-1.75,1.16-.68.06-1.36.18-2.02.37h-.42v55.38h11.83Z"/>
    <path class="cls-2" d="M173.76,49.41l1.3-.25c.07.51.07,1.02,0,1.52-.09.76-.03,1.54.17,2.28.08.14.2.24.35.3.15.06.31.06.45.01.5,0,1.03.82,1.69,1.07.66.25.97.76.91,1.24-.05.48-.5.76-.64,1.78-.14,1.01,1.41,1.01,1.91,1.27.5.25,2.77.45,2.77.59s.42.7.33,1.04V.14h-11.69v53.13c.22-.48,1.11-2.25,1.3-2.54.34-.44.72-.85,1.14-1.21"/>
    <path class="cls-2" d="M179.02,66.43s.33-.65.28-.79c-.06-.14,0-.56.39-.87.39-.31.83-.28,1.61-.31.33,0,1.16-.42,1.88-.76v-3.38s0,.06,0,.08c0,.03-.02.05-.04.07s-.04.04-.07.05-.05.02-.08.02c-.53,0-.53,1.16-1.3,1.63-.78.48-2.22.7-2.77,1.27-.55.56.28,1.01.36,1.24.08.23-.19.39-.72.96-.53.56.39.79.39.79"/>
    <path class="cls-2" d="M207.72,102.48V.17h-11.88v113.67h119.72v-11.36h-107.84Z"/>
    <path class="cls-2" d="M134.26,42.92v1.24c.19-.17.5-.39.42-.62-.08-.23-.39-.39-.42-.62Z"/>
  </g>
</svg>